<svg xmlns="http://www.w3.org/2000/svg" xmlns:xlink="http://www.w3.org/1999/xlink" version="1.1" class="marks" width="530" height="282" viewBox="0 0 530 282"><rect width="530" height="282" fill="#ffffff"/><g fill="none" stroke-miterlimit="10" transform="translate(104,84)"><g class="mark-group role-frame root" role="graphics-object" aria-roledescription="group mark container"><g transform="translate(0,0)"><path class="background" aria-hidden="true" d="M0,0h420v160h-420Z"/><g><g class="mark-group role-axis" aria-hidden="true"><g transform="translate(0.5,160.5)"><path class="background" aria-hidden="true" d="M0,0h0v0h0Z" pointer-events="none"/><g><g class="mark-rule role-axis-grid" pointer-events="none"><line transform="translate(0,0)" x2="0" y2="-160" stroke="#e6e5e1" stroke-width="1" opacity="1"/><line transform="translate(42,0)" x2="0" y2="-160" stroke="#e6e5e1" stroke-width="1" opacity="1"/><line transform="translate(84,0)" x2="0" y2="-160" stroke="#e6e5e1" stroke-width="1" opacity="1"/><line transform="translate(126,0)" x2="0" y2="-160" stroke="#e6e5e1" stroke-width="1" opacity="1"/><line transform="translate(168,0)" x2="0" y2="-160" stroke="#e6e5e1" stroke-width="1" opacity="1"/><line transform="translate(210,0)" x2="0" y2="-160" stroke="#e6e5e1" stroke-width="1" opacity="1"/><line transform="translate(252,0)" x2="0" y2="-160" stroke="#e6e5e1" stroke-width="1" opacity="1"/><line transform="translate(294,0)" x2="0" y2="-160" stroke="#e6e5e1" stroke-width="1" opacity="1"/><line transform="translate(336,0)" x2="0" y2="-160" stroke="#e6e5e1" stroke-width="1" opacity="1"/><line transform="translate(378,0)" x2="0" y2="-160" stroke="#e6e5e1" stroke-width="1" opacity="1"/><line transform="translate(420,0)" x2="0" y2="-160" stroke="#e6e5e1" stroke-width="1" opacity="1"/></g></g><path class="foreground" aria-hidden="true" d="" pointer-events="none" display="none"/></g></g><g class="mark-group role-axis" role="graphics-symbol" aria-roledescription="axis" aria-label="X-axis titled '재현율(%)' for a linear scale with values from 0 to 100"><g transform="translate(0.5,160.5)"><path class="background" aria-hidden="true" d="M0,0h0v0h0Z" pointer-events="none"/><g><g class="mark-rule role-axis-tick" pointer-events="none"><line transform="translate(0,0)" x2="0" y2="5" stroke="#c3c2b7" stroke-width="1" opacity="1"/><line transform="translate(42,0)" x2="0" y2="5" stroke="#c3c2b7" stroke-width="1" opacity="1"/><line transform="translate(84,0)" x2="0" y2="5" stroke="#c3c2b7" stroke-width="1" opacity="1"/><line transform="translate(126,0)" x2="0" y2="5" stroke="#c3c2b7" stroke-width="1" opacity="1"/><line transform="translate(168,0)" x2="0" y2="5" stroke="#c3c2b7" stroke-width="1" opacity="1"/><line transform="translate(210,0)" x2="0" y2="5" stroke="#c3c2b7" stroke-width="1" opacity="1"/><line transform="translate(252,0)" x2="0" y2="5" stroke="#c3c2b7" stroke-width="1" opacity="1"/><line transform="translate(294,0)" x2="0" y2="5" stroke="#c3c2b7" stroke-width="1" opacity="1"/><line transform="translate(336,0)" x2="0" y2="5" stroke="#c3c2b7" stroke-width="1" opacity="1"/><line transform="translate(378,0)" x2="0" y2="5" stroke="#c3c2b7" stroke-width="1" opacity="1"/><line transform="translate(420,0)" x2="0" y2="5" stroke="#c3c2b7" stroke-width="1" opacity="1"/></g><g class="mark-text role-axis-label" pointer-events="none"><text text-anchor="start" transform="translate(0,16)" font-family="Noto Sans CJK KR" font-size="11px" fill="#52514e" opacity="1">0</text><text text-anchor="middle" transform="translate(42,16)" font-family="Noto Sans CJK KR" font-size="11px" fill="#52514e" opacity="0">10</text><text text-anchor="middle" transform="translate(84,16)" font-family="Noto Sans CJK KR" font-size="11px" fill="#52514e" opacity="1">20</text><text text-anchor="middle" transform="translate(126,16)" font-family="Noto Sans CJK KR" font-size="11px" fill="#52514e" opacity="0">30</text><text text-anchor="middle" transform="translate(168,16)" font-family="Noto Sans CJK KR" font-size="11px" fill="#52514e" opacity="1">40</text><text text-anchor="middle" transform="translate(210,16)" font-family="Noto Sans CJK KR" font-size="11px" fill="#52514e" opacity="0">50</text><text text-anchor="middle" transform="translate(252,16)" font-family="Noto Sans CJK KR" font-size="11px" fill="#52514e" opacity="1">60</text><text text-anchor="middle" transform="translate(294,16)" font-family="Noto Sans CJK KR" font-size="11px" fill="#52514e" opacity="0">70</text><text text-anchor="middle" transform="translate(336,16)" font-family="Noto Sans CJK KR" font-size="11px" fill="#52514e" opacity="1">80</text><text text-anchor="middle" transform="translate(378,16)" font-family="Noto Sans CJK KR" font-size="11px" fill="#52514e" opacity="0">90</text><text text-anchor="end" transform="translate(420,16)" font-family="Noto Sans CJK KR" font-size="11px" fill="#52514e" opacity="1">100</text></g><g class="mark-rule role-axis-domain" pointer-events="none"><line transform="translate(0,0)" x2="420" y2="0" stroke="#c3c2b7" stroke-width="1" opacity="1"/></g><g class="mark-text role-axis-title" pointer-events="none"><text text-anchor="middle" transform="translate(210,31)" font-family="Noto Sans CJK KR" font-size="11px" font-weight="bold" fill="#52514e" opacity="1">재현율(%)</text></g></g><path class="foreground" aria-hidden="true" d="" pointer-events="none" display="none"/></g></g><g class="mark-group role-axis" role="graphics-symbol" aria-roledescription="axis" aria-label="Y-axis for a discrete scale with 2 values: 한글 질의, 영문 질의"><g transform="translate(0.5,0.5)"><path class="background" aria-hidden="true" d="M0,0h0v0h0Z" pointer-events="none"/><g><g class="mark-rule role-axis-tick" pointer-events="none"><line transform="translate(0,40)" x2="-5" y2="0" stroke="#c3c2b7" stroke-width="1" opacity="1"/><line transform="translate(0,120)" x2="-5" y2="0" stroke="#c3c2b7" stroke-width="1" opacity="1"/></g><g class="mark-text role-axis-label" pointer-events="none"><text text-anchor="end" transform="translate(-7,42.5)" font-family="Noto Sans CJK KR" font-size="11px" fill="#52514e" opacity="1">한글 질의</text><text text-anchor="end" transform="translate(-7,122.5)" font-family="Noto Sans CJK KR" font-size="11px" fill="#52514e" opacity="1">영문 질의</text></g><g class="mark-rule role-axis-domain" pointer-events="none"><line transform="translate(0,0)" x2="0" y2="160" stroke="#c3c2b7" stroke-width="1" opacity="1"/></g></g><path class="foreground" aria-hidden="true" d="" pointer-events="none" display="none"/></g></g><g class="mark-group role-scope layer_0_pathgroup" role="graphics-object" aria-roledescription="group mark container"><g transform="translate(0,0)"><path class="background" aria-hidden="true" d="M0,0h420v160h-420Z"/><g><g class="mark-line role-mark layer_0_marks" role="graphics-object" aria-roledescription="line mark container"><path aria-label="재현율(%): 93.6; group: 한글 질의" role="graphics-symbol" aria-roledescription="line mark" d="M393.12,40L396.9,40" stroke="#2a78d6" stroke-width="2"/></g></g><path class="foreground" aria-hidden="true" d="" display="none"/></g><g transform="translate(0,0)"><path class="background" aria-hidden="true" d="M0,0h420v160h-420Z"/><g><g class="mark-line role-mark layer_0_marks" role="graphics-object" aria-roledescription="line mark container"><path aria-label="재현율(%): 75.5; group: 영문 질의" role="graphics-symbol" aria-roledescription="line mark" d="M317.1,120L365.82,120" stroke="#2a78d6" stroke-width="2"/></g></g><path class="foreground" aria-hidden="true" d="" display="none"/></g></g><g class="mark-rule role-mark layer_1_marks" role="graphics-object" aria-roledescription="rule mark container"><line aria-label="재현율(%): 91.7; group: 한글 질의; upper_lo: 95.1; method: 기준; 방식: 기준; hi: 95.1; lo: 91.7" role="graphics-symbol" aria-roledescription="errorbar" transform="translate(385.14000000000004,20)" x2="14.279999999999916" y2="0" stroke="#2a78d6" stroke-width="2" stroke-dasharray="1,0"/><line aria-label="재현율(%): 92.7; group: 한글 질의; upper_lo: 95.9; method: 후보; 방식: 후보; hi: 95.9; lo: 92.7" role="graphics-symbol" aria-roledescription="errorbar" transform="translate(389.34000000000003,60)" x2="13.439999999999998" y2="0" stroke="#eb6834" stroke-width="2" stroke-dasharray="1,0"/><line aria-label="재현율(%): 72.4; group: 영문 질의; upper_lo: 78.4; method: 기준; 방식: 기준; hi: 78.4; lo: 72.4" role="graphics-symbol" aria-roledescription="errorbar" transform="translate(304.08000000000004,100)" x2="25.19999999999999" y2="0" stroke="#2a78d6" stroke-width="2" stroke-dasharray="1,0"/><line aria-label="재현율(%): 84.6; group: 영문 질의; upper_lo: 89.3; method: 후보; 방식: 후보; hi: 89.3; lo: 84.6" role="graphics-symbol" aria-roledescription="errorbar" transform="translate(355.32,140)" x2="19.74000000000001" y2="0" stroke="#eb6834" stroke-width="2" stroke-dasharray="1,0"/></g><g class="mark-symbol role-mark layer_2_marks" role="graphics-object" aria-roledescription="symbol mark container"><path aria-label="재현율(%): 93.6; group: 한글 질의; method: 기준; 방식: 기준" role="graphics-symbol" aria-roledescription="point" transform="translate(393.12,20)" d="M4.472,0A4.472,4.472,0,1,1,-4.472,0A4.472,4.472,0,1,1,4.472,0" fill="#2a78d6" stroke-width="2" opacity="0.7"/><path aria-label="재현율(%): 94.5; group: 한글 질의; method: 후보; 방식: 후보" role="graphics-symbol" aria-roledescription="point" transform="translate(396.9,60)" d="M4.472,0A4.472,4.472,0,1,1,-4.472,0A4.472,4.472,0,1,1,4.472,0" fill="#eb6834" stroke-width="2" opacity="0.7"/><path aria-label="재현율(%): 75.5; group: 영문 질의; method: 기준; 방식: 기준" role="graphics-symbol" aria-roledescription="point" transform="translate(317.1,100)" d="M4.472,0A4.472,4.472,0,1,1,-4.472,0A4.472,4.472,0,1,1,4.472,0" fill="#2a78d6" stroke-width="2" opacity="0.7"/><path aria-label="재현율(%): 87.1; group: 영문 질의; method: 후보; 방식: 후보" role="graphics-symbol" aria-roledescription="point" transform="translate(365.82,140)" d="M4.472,0A4.472,4.472,0,1,1,-4.472,0A4.472,4.472,0,1,1,4.472,0" fill="#eb6834" stroke-width="2" opacity="0.7"/></g><g class="mark-group role-legend" role="graphics-symbol" aria-roledescription="legend" aria-label="Symbol legend titled '방식' for fill color and stroke color with 2 values: 기준, 후보"><g transform="translate(0,-47)"><path class="background" aria-hidden="true" d="M0,0h133v29h-133Z" pointer-events="none"/><g><g class="mark-group role-legend-entry"><g transform="translate(0,16)"><path class="background" aria-hidden="true" d="M0,0h0v0h0Z" pointer-events="none"/><g><g class="mark-group role-scope" role="graphics-object" aria-roledescription="group mark container"><g transform="translate(0,0)"><path class="background" aria-hidden="true" d="M0,0h60.4921875v13h-60.4921875Z" pointer-events="none" opacity="1"/><g><g class="mark-symbol role-legend-symbol" pointer-events="none"><path transform="translate(6,6)" d="M5,0A5,5,0,1,1,-5,0A5,5,0,1,1,5,0" fill="#2a78d6" stroke="#2a78d6" stroke-width="2" stroke-dasharray="4,4" opacity="1"/></g><g class="mark-text role-legend-label" pointer-events="none"><text text-anchor="start" transform="translate(16,9)" font-family="Noto Sans CJK KR" font-size="10px" fill="#52514e" opacity="1">기준</text></g></g><path class="foreground" aria-hidden="true" d="" pointer-events="none" display="none"/></g><g transform="translate(72,0)"><path class="background" aria-hidden="true" d="M0,0h60.4921875v13h-60.4921875Z" pointer-events="none" opacity="1"/><g><g class="mark-symbol role-legend-symbol" pointer-events="none"><path transform="translate(6,6)" d="M5,0A5,5,0,1,1,-5,0A5,5,0,1,1,5,0" fill="#eb6834" stroke="#eb6834" stroke-width="2" stroke-dasharray="4,4" opacity="1"/></g><g class="mark-text role-legend-label" pointer-events="none"><text text-anchor="start" transform="translate(16,9)" font-family="Noto Sans CJK KR" font-size="10px" fill="#52514e" opacity="1">후보</text></g></g><path class="foreground" aria-hidden="true" d="" pointer-events="none" display="none"/></g></g></g><path class="foreground" aria-hidden="true" d="" pointer-events="none" display="none"/></g></g><g class="mark-text role-legend-title" pointer-events="none"><text text-anchor="start" transform="translate(0,9)" font-family="Noto Sans CJK KR" font-size="11px" font-weight="bold" fill="#52514e" opacity="1">방식</text></g></g><path class="foreground" aria-hidden="true" d="" pointer-events="none" display="none"/></g></g><g class="mark-group role-title"><g transform="translate(-98.76513671875,-79)"><path class="background" aria-hidden="true" d="M0,0h0v0h0Z" pointer-events="none"/><g><g class="mark-text role-title-text" role="graphics-symbol" aria-roledescription="title" aria-label="Title text '오타 질의의 상위 10개 재현율'" pointer-events="none"><text text-anchor="start" transform="translate(0,11)" font-family="Noto Sans CJK KR" font-size="14px" font-weight="bold" fill="#0b0b0b" opacity="1">오타 질의의 상위 10개 재현율</text></g><g class="mark-text role-title-subtitle" role="graphics-symbol" aria-roledescription="subtitle" aria-label="Subtitle text 'n=한글 800, 영문 800. 후보는 한글 자모 3개, 영문 글자 4개 단위'" pointer-events="none"><text text-anchor="start" transform="translate(0,26)" font-family="Noto Sans CJK KR" font-size="11px" fill="#8a8983" opacity="1">n=한글 800, 영문 800. 후보는 한글 자모 3개, 영문 글자 4개 단위</text></g></g><path class="foreground" aria-hidden="true" d="" pointer-events="none" display="none"/></g></g></g><path class="foreground" aria-hidden="true" d="" display="none"/></g></g></g></svg>