<svg xmlns="http://www.w3.org/2000/svg" xmlns:xlink="http://www.w3.org/1999/xlink" version="1.1" class="marks" width="480" height="305" viewBox="0 0 480 305"><rect width="480" height="305" fill="#ffffff"/><g fill="none" stroke-miterlimit="10" transform="translate(52,47)"><g class="mark-group role-frame root" role="graphics-object" aria-roledescription="group mark container"><g transform="translate(0,0)"><path class="background" aria-hidden="true" d="M0,0h420v220h-420Z"/><g><g class="mark-group role-axis" aria-hidden="true"><g transform="translate(0.5,220.5)"><path class="background" aria-hidden="true" d="M0,0h0v0h0Z" pointer-events="none"/><g><g class="mark-rule role-axis-grid" pointer-events="none"><line transform="translate(0,-220)" x2="0" y2="220" stroke="#e6e5e1" stroke-width="1" opacity="1"/><line transform="translate(47,-220)" x2="0" y2="220" stroke="#e6e5e1" stroke-width="1" opacity="1"/><line transform="translate(93,-220)" x2="0" y2="220" stroke="#e6e5e1" stroke-width="1" opacity="1"/><line transform="translate(140,-220)" x2="0" y2="220" stroke="#e6e5e1" stroke-width="1" opacity="1"/><line transform="translate(187,-220)" x2="0" y2="220" stroke="#e6e5e1" stroke-width="1" opacity="1"/><line transform="translate(233,-220)" x2="0" y2="220" stroke="#e6e5e1" stroke-width="1" opacity="1"/><line transform="translate(280,-220)" x2="0" y2="220" stroke="#e6e5e1" stroke-width="1" opacity="1"/><line transform="translate(327,-220)" x2="0" y2="220" stroke="#e6e5e1" stroke-width="1" opacity="1"/><line transform="translate(373,-220)" x2="0" y2="220" stroke="#e6e5e1" stroke-width="1" opacity="1"/><line transform="translate(420,-220)" x2="0" y2="220" stroke="#e6e5e1" stroke-width="1" opacity="1"/></g></g><path class="foreground" aria-hidden="true" d="" pointer-events="none" display="none"/></g></g><g class="mark-group role-axis" aria-hidden="true"><g transform="translate(0.5,0.5)"><path class="background" aria-hidden="true" d="M0,0h0v0h0Z" pointer-events="none"/><g><g class="mark-rule role-axis-grid" pointer-events="none"><line transform="translate(0,220)" x2="420" y2="0" stroke="#e6e5e1" stroke-width="1" opacity="1"/><line transform="translate(0,176)" x2="420" y2="0" stroke="#e6e5e1" stroke-width="1" opacity="1"/><line transform="translate(0,132)" x2="420" y2="0" stroke="#e6e5e1" stroke-width="1" opacity="1"/><line transform="translate(0,88)" x2="420" y2="0" stroke="#e6e5e1" stroke-width="1" opacity="1"/><line transform="translate(0,44)" x2="420" y2="0" stroke="#e6e5e1" stroke-width="1" opacity="1"/><line transform="translate(0,0)" x2="420" y2="0" stroke="#e6e5e1" stroke-width="1" opacity="1"/></g></g><path class="foreground" aria-hidden="true" d="" pointer-events="none" display="none"/></g></g><g class="mark-group role-axis" role="graphics-symbol" aria-roledescription="axis" aria-label="X-axis titled '미리 판단 시작 비율 s(T 대비)' for a linear scale with values from 0.0 to 0.9"><g transform="translate(0.5,220.5)"><path class="background" aria-hidden="true" d="M0,0h0v0h0Z" pointer-events="none"/><g><g class="mark-rule role-axis-tick" pointer-events="none"><line transform="translate(0,0)" x2="0" y2="5" stroke="#c3c2b7" stroke-width="1" opacity="1"/><line transform="translate(47,0)" x2="0" y2="5" stroke="#c3c2b7" stroke-width="1" opacity="1"/><line transform="translate(93,0)" x2="0" y2="5" stroke="#c3c2b7" stroke-width="1" opacity="1"/><line transform="translate(140,0)" x2="0" y2="5" stroke="#c3c2b7" stroke-width="1" opacity="1"/><line transform="translate(187,0)" x2="0" y2="5" stroke="#c3c2b7" stroke-width="1" opacity="1"/><line transform="translate(233,0)" x2="0" y2="5" stroke="#c3c2b7" stroke-width="1" opacity="1"/><line transform="translate(280,0)" x2="0" y2="5" stroke="#c3c2b7" stroke-width="1" opacity="1"/><line transform="translate(327,0)" x2="0" y2="5" stroke="#c3c2b7" stroke-width="1" opacity="1"/><line transform="translate(373,0)" x2="0" y2="5" stroke="#c3c2b7" stroke-width="1" opacity="1"/><line transform="translate(420,0)" x2="0" y2="5" stroke="#c3c2b7" stroke-width="1" opacity="1"/></g><g class="mark-text role-axis-label" pointer-events="none"><text text-anchor="start" transform="translate(0,16)" font-family="Noto Sans CJK KR" font-size="11px" fill="#52514e" opacity="1">0.0</text><text text-anchor="middle" transform="translate(46.66666666666667,16)" font-family="Noto Sans CJK KR" font-size="11px" fill="#52514e" opacity="1">0.1</text><text text-anchor="middle" transform="translate(93.33333333333334,16)" font-family="Noto Sans CJK KR" font-size="11px" fill="#52514e" opacity="1">0.2</text><text text-anchor="middle" transform="translate(140,16)" font-family="Noto Sans CJK KR" font-size="11px" fill="#52514e" opacity="1">0.3</text><text text-anchor="middle" transform="translate(186.66666666666669,16)" font-family="Noto Sans CJK KR" font-size="11px" fill="#52514e" opacity="1">0.4</text><text text-anchor="middle" transform="translate(233.33333333333334,16)" font-family="Noto Sans CJK KR" font-size="11px" fill="#52514e" opacity="1">0.5</text><text text-anchor="middle" transform="translate(280,16)" font-family="Noto Sans CJK KR" font-size="11px" fill="#52514e" opacity="1">0.6</text><text text-anchor="middle" transform="translate(326.66666666666663,16)" font-family="Noto Sans CJK KR" font-size="11px" fill="#52514e" opacity="1">0.7</text><text text-anchor="middle" transform="translate(373.33333333333337,16)" font-family="Noto Sans CJK KR" font-size="11px" fill="#52514e" opacity="1">0.8</text><text text-anchor="end" transform="translate(420,16)" font-family="Noto Sans CJK KR" font-size="11px" fill="#52514e" opacity="1">0.9</text></g><g class="mark-rule role-axis-domain" pointer-events="none"><line transform="translate(0,0)" x2="420" y2="0" stroke="#c3c2b7" stroke-width="1" opacity="1"/></g><g class="mark-text role-axis-title" pointer-events="none"><text text-anchor="middle" transform="translate(210,31)" font-family="Noto Sans CJK KR" font-size="11px" font-weight="bold" fill="#52514e" opacity="1">미리 판단 시작 비율 s(T 대비)</text></g></g><path class="foreground" aria-hidden="true" d="" pointer-events="none" display="none"/></g></g><g class="mark-group role-axis" role="graphics-symbol" aria-roledescription="axis" aria-label="Y-axis titled 'lazy 대비 추정 입력 토큰(배)' for a linear scale with values from 0 to 10"><g transform="translate(0.5,0.5)"><path class="background" aria-hidden="true" d="M0,0h0v0h0Z" pointer-events="none"/><g><g class="mark-rule role-axis-tick" pointer-events="none"><line transform="translate(0,220)" x2="-5" y2="0" stroke="#c3c2b7" stroke-width="1" opacity="1"/><line transform="translate(0,176)" x2="-5" y2="0" stroke="#c3c2b7" stroke-width="1" opacity="1"/><line transform="translate(0,132)" x2="-5" y2="0" stroke="#c3c2b7" stroke-width="1" opacity="1"/><line transform="translate(0,88)" x2="-5" y2="0" stroke="#c3c2b7" stroke-width="1" opacity="1"/><line transform="translate(0,44)" x2="-5" y2="0" stroke="#c3c2b7" stroke-width="1" opacity="1"/><line transform="translate(0,0)" x2="-5" y2="0" stroke="#c3c2b7" stroke-width="1" opacity="1"/></g><g class="mark-text role-axis-label" pointer-events="none"><text text-anchor="end" transform="translate(-7,223)" font-family="Noto Sans CJK KR" font-size="11px" fill="#52514e" opacity="1">0</text><text text-anchor="end" transform="translate(-7,179)" font-family="Noto Sans CJK KR" font-size="11px" fill="#52514e" opacity="1">2</text><text text-anchor="end" transform="translate(-7,135)" font-family="Noto Sans CJK KR" font-size="11px" fill="#52514e" opacity="1">4</text><text text-anchor="end" transform="translate(-7,91)" font-family="Noto Sans CJK KR" font-size="11px" fill="#52514e" opacity="1">6</text><text text-anchor="end" transform="translate(-7,46.99999999999999)" font-family="Noto Sans CJK KR" font-size="11px" fill="#52514e" opacity="1">8</text><text text-anchor="end" transform="translate(-7,3)" font-family="Noto Sans CJK KR" font-size="11px" fill="#52514e" opacity="1">10</text></g><g class="mark-rule role-axis-domain" pointer-events="none"><line transform="translate(0,220)" x2="0" y2="-220" stroke="#c3c2b7" stroke-width="1" opacity="1"/></g><g class="mark-text role-axis-title" pointer-events="none"><text text-anchor="middle" transform="translate(-35.470703125,110) rotate(-90) translate(0,-2)" font-family="Noto Sans CJK KR" font-size="11px" font-weight="bold" fill="#52514e" opacity="1">lazy 대비 추정 입력 토큰(배)</text></g></g><path class="foreground" aria-hidden="true" d="" pointer-events="none" display="none"/></g></g><g class="mark-line role-mark layer_0_layer_0_marks" role="graphics-object" aria-roledescription="line mark container"><path aria-label="미리 판단 시작 비율 s(T 대비): 0; lazy 대비 추정 입력 토큰(배): 8.395" role="graphics-symbol" aria-roledescription="line mark" d="M0,35.31L116.667,79.332L233.333,110.726L280,128.634L326.667,146.3L373.333,160.248L420,179.08" stroke="#2a78d6" stroke-width="2"/></g><g class="mark-symbol role-mark layer_0_layer_1_marks" role="graphics-object" aria-roledescription="symbol mark container"><path aria-label="미리 판단 시작 비율 s(T 대비): 0; lazy 대비 추정 입력 토큰(배): 8.395" role="graphics-symbol" aria-roledescription="point" transform="translate(0,35.31000000000002)" d="M2.739,0A2.739,2.739,0,1,1,-2.739,0A2.739,2.739,0,1,1,2.739,0" fill="#2a78d6" stroke-width="2" opacity="1"/><path aria-label="미리 판단 시작 비율 s(T 대비): 0.25; lazy 대비 추정 입력 토큰(배): 6.394" role="graphics-symbol" aria-roledescription="point" transform="translate(116.66666666666667,79.33200000000001)" d="M2.739,0A2.739,2.739,0,1,1,-2.739,0A2.739,2.739,0,1,1,2.739,0" fill="#2a78d6" stroke-width="2" opacity="1"/><path aria-label="미리 판단 시작 비율 s(T 대비): 0.5; lazy 대비 추정 입력 토큰(배): 4.967" role="graphics-symbol" aria-roledescription="point" transform="translate(233.33333333333334,110.72600000000001)" d="M2.739,0A2.739,2.739,0,1,1,-2.739,0A2.739,2.739,0,1,1,2.739,0" fill="#2a78d6" stroke-width="2" opacity="1"/><path aria-label="미리 판단 시작 비율 s(T 대비): 0.6; lazy 대비 추정 입력 토큰(배): 4.153" role="graphics-symbol" aria-roledescription="point" transform="translate(280,128.634)" d="M2.739,0A2.739,2.739,0,1,1,-2.739,0A2.739,2.739,0,1,1,2.739,0" fill="#2a78d6" stroke-width="2" opacity="1"/><path aria-label="미리 판단 시작 비율 s(T 대비): 0.7; lazy 대비 추정 입력 토큰(배): 3.35" role="graphics-symbol" aria-roledescription="point" transform="translate(326.66666666666663,146.3)" d="M2.739,0A2.739,2.739,0,1,1,-2.739,0A2.739,2.739,0,1,1,2.739,0" fill="#2a78d6" stroke-width="2" opacity="1"/><path aria-label="미리 판단 시작 비율 s(T 대비): 0.8; lazy 대비 추정 입력 토큰(배): 2.716" role="graphics-symbol" aria-roledescription="point" transform="translate(373.33333333333337,160.248)" d="M2.739,0A2.739,2.739,0,1,1,-2.739,0A2.739,2.739,0,1,1,2.739,0" fill="#2a78d6" stroke-width="2" opacity="1"/><path aria-label="미리 판단 시작 비율 s(T 대비): 0.9; lazy 대비 추정 입력 토큰(배): 1.86" role="graphics-symbol" aria-roledescription="point" transform="translate(420,179.08)" d="M2.739,0A2.739,2.739,0,1,1,-2.739,0A2.739,2.739,0,1,1,2.739,0" fill="#2a78d6" stroke-width="2" opacity="1"/></g><g class="mark-rule role-mark layer_1_marks" role="graphics-object" aria-roledescription="rule mark container"><line aria-label="미리 판단 시작 비율 s(T 대비): 0; lazy 대비 추정 입력 토큰(배): 7.151; upper_lo: 9.697; hi: 9.697; lo: 7.151" role="graphics-symbol" aria-roledescription="errorbar" transform="translate(0,62.67800000000001)" x2="0" y2="-56.011999999999986" stroke="#0b0b0b" stroke-width="2" stroke-dasharray="1,0"/><line aria-label="미리 판단 시작 비율 s(T 대비): 0.25; lazy 대비 추정 입력 토큰(배): 5.59; upper_lo: 7.222; hi: 7.222; lo: 5.59" role="graphics-symbol" aria-roledescription="errorbar" transform="translate(116.66666666666667,97.02000000000001)" x2="0" y2="-35.904000000000025" stroke="#0b0b0b" stroke-width="2" stroke-dasharray="1,0"/><line aria-label="미리 판단 시작 비율 s(T 대비): 0.5; lazy 대비 추정 입력 토큰(배): 4.337; upper_lo: 5.614; hi: 5.614; lo: 4.337" role="graphics-symbol" aria-roledescription="errorbar" transform="translate(233.33333333333334,124.58600000000001)" x2="0" y2="-28.09400000000001" stroke="#0b0b0b" stroke-width="2" stroke-dasharray="1,0"/><line aria-label="미리 판단 시작 비율 s(T 대비): 0.6; lazy 대비 추정 입력 토큰(배): 3.596; upper_lo: 4.745; hi: 4.745; lo: 3.596" role="graphics-symbol" aria-roledescription="errorbar" transform="translate(280,140.888)" x2="0" y2="-25.278000000000006" stroke="#0b0b0b" stroke-width="2" stroke-dasharray="1,0"/><line aria-label="미리 판단 시작 비율 s(T 대비): 0.7; lazy 대비 추정 입력 토큰(배): 2.931; upper_lo: 3.798; hi: 3.798; lo: 2.931" role="graphics-symbol" aria-roledescription="errorbar" transform="translate(326.66666666666663,155.518)" x2="0" y2="-19.074000000000012" stroke="#0b0b0b" stroke-width="2" stroke-dasharray="1,0"/><line aria-label="미리 판단 시작 비율 s(T 대비): 0.8; lazy 대비 추정 입력 토큰(배): 2.369; upper_lo: 3.108; hi: 3.108; lo: 2.369" role="graphics-symbol" aria-roledescription="errorbar" transform="translate(373.33333333333337,167.882)" x2="0" y2="-16.25800000000001" stroke="#0b0b0b" stroke-width="2" stroke-dasharray="1,0"/><line aria-label="미리 판단 시작 비율 s(T 대비): 0.9; lazy 대비 추정 입력 토큰(배): 1.639; upper_lo: 2.104; hi: 2.104; lo: 1.639" role="graphics-symbol" aria-roledescription="errorbar" transform="translate(420,183.942)" x2="0" y2="-10.230000000000018" stroke="#0b0b0b" stroke-width="2" stroke-dasharray="1,0"/></g><g class="mark-rule role-mark layer_2_marks" role="graphics-object" aria-roledescription="rule mark container"><line aria-label="threshold: 1.5" role="graphics-symbol" aria-roledescription="rule mark" transform="translate(420,187)" x2="-420" y2="0" stroke="#eb6834" stroke-width="2" stroke-dasharray="4,4"/></g><g class="mark-group role-title"><g transform="translate(-46.470703125000014,-41.294677734375)"><path class="background" aria-hidden="true" d="M0,0h0v0h0Z" pointer-events="none"/><g><g class="mark-text role-title-text" role="graphics-symbol" aria-roledescription="title" aria-label="Title text '미리 판단의 judge 입력 토큰 배수'" pointer-events="none"><text text-anchor="start" transform="translate(0,11)" font-family="Noto Sans CJK KR" font-size="14px" font-weight="bold" fill="#0b0b0b" opacity="1">미리 판단의 judge 입력 토큰 배수</text></g><g class="mark-text role-title-subtitle" role="graphics-symbol" aria-roledescription="subtitle" aria-label="Subtitle text 'n=1154 session. 기준선은 채택 기준 1.5배'" pointer-events="none"><text text-anchor="start" transform="translate(0,26)" font-family="Noto Sans CJK KR" font-size="11px" fill="#8a8983" opacity="1">n=1154 session. 기준선은 채택 기준 1.5배</text></g></g><path class="foreground" aria-hidden="true" d="" pointer-events="none" display="none"/></g></g></g><path class="foreground" aria-hidden="true" d="" display="none"/></g></g></g></svg>