<svg xmlns="http://www.w3.org/2000/svg" xmlns:xlink="http://www.w3.org/1999/xlink" version="1.1" class="marks" width="501" height="301" viewBox="0 0 501 301"><rect width="501" height="301" fill="#ffffff"/><g fill="none" stroke-miterlimit="10" transform="translate(43,43)"><g class="mark-group role-frame root" role="graphics-object" aria-roledescription="group mark container"><g transform="translate(0,0)"><path class="background" aria-hidden="true" d="M0,0h420v220h-420Z"/><g><g class="mark-group role-axis" aria-hidden="true"><g transform="translate(0.5,0.5)"><path class="background" aria-hidden="true" d="M0,0h0v0h0Z" pointer-events="none"/><g><g class="mark-rule role-axis-grid" pointer-events="none"><line transform="translate(0,220)" x2="420" y2="0" stroke="#e6e5e1" stroke-width="1" opacity="1"/><line transform="translate(0,176)" x2="420" y2="0" stroke="#e6e5e1" stroke-width="1" opacity="1"/><line transform="translate(0,132)" x2="420" y2="0" stroke="#e6e5e1" stroke-width="1" opacity="1"/><line transform="translate(0,88)" x2="420" y2="0" stroke="#e6e5e1" stroke-width="1" opacity="1"/><line transform="translate(0,44)" x2="420" y2="0" stroke="#e6e5e1" stroke-width="1" opacity="1"/><line transform="translate(0,0)" x2="420" y2="0" stroke="#e6e5e1" stroke-width="1" opacity="1"/></g></g><path class="foreground" aria-hidden="true" d="" pointer-events="none" display="none"/></g></g><g class="mark-group role-axis" role="graphics-symbol" aria-roledescription="axis" aria-label="X-axis titled 'N' for a discrete scale with 4 values: 5, 10, 20, 40"><g transform="translate(0.5,220.5)"><path class="background" aria-hidden="true" d="M0,0h0v0h0Z" pointer-events="none"/><g><g class="mark-rule role-axis-tick" pointer-events="none"><line transform="translate(52,0)" x2="0" y2="5" stroke="#c3c2b7" stroke-width="1" opacity="1"/><line transform="translate(157,0)" x2="0" y2="5" stroke="#c3c2b7" stroke-width="1" opacity="1"/><line transform="translate(262,0)" x2="0" y2="5" stroke="#c3c2b7" stroke-width="1" opacity="1"/><line transform="translate(367,0)" x2="0" y2="5" stroke="#c3c2b7" stroke-width="1" opacity="1"/></g><g class="mark-text role-axis-label" pointer-events="none"><text text-anchor="middle" transform="translate(52,16)" font-family="Noto Sans CJK KR" font-size="11px" fill="#52514e" opacity="1">5</text><text text-anchor="middle" transform="translate(157,16)" font-family="Noto Sans CJK KR" font-size="11px" fill="#52514e" opacity="1">10</text><text text-anchor="middle" transform="translate(262,16)" font-family="Noto Sans CJK KR" font-size="11px" fill="#52514e" opacity="1">20</text><text text-anchor="middle" transform="translate(367,16)" font-family="Noto Sans CJK KR" font-size="11px" fill="#52514e" opacity="1">40</text></g><g class="mark-rule role-axis-domain" pointer-events="none"><line transform="translate(0,0)" x2="420" y2="0" stroke="#c3c2b7" stroke-width="1" opacity="1"/></g><g class="mark-text role-axis-title" pointer-events="none"><text text-anchor="middle" transform="translate(210,31)" font-family="Noto Sans CJK KR" font-size="11px" font-weight="bold" fill="#52514e" opacity="1">N</text></g></g><path class="foreground" aria-hidden="true" d="" pointer-events="none" display="none"/></g></g><g class="mark-group role-axis" role="graphics-symbol" aria-roledescription="axis" aria-label="Y-axis for a linear scale with values from 0 to 100"><g transform="translate(0.5,0.5)"><path class="background" aria-hidden="true" d="M0,0h0v0h0Z" pointer-events="none"/><g><g class="mark-rule role-axis-tick" pointer-events="none"><line transform="translate(0,220)" x2="-5" y2="0" stroke="#c3c2b7" stroke-width="1" opacity="1"/><line transform="translate(0,176)" x2="-5" y2="0" stroke="#c3c2b7" stroke-width="1" opacity="1"/><line transform="translate(0,132)" x2="-5" y2="0" stroke="#c3c2b7" stroke-width="1" opacity="1"/><line transform="translate(0,88)" x2="-5" y2="0" stroke="#c3c2b7" stroke-width="1" opacity="1"/><line transform="translate(0,44)" x2="-5" y2="0" stroke="#c3c2b7" stroke-width="1" opacity="1"/><line transform="translate(0,0)" x2="-5" y2="0" stroke="#c3c2b7" stroke-width="1" opacity="1"/></g><g class="mark-text role-axis-label" pointer-events="none"><text text-anchor="end" transform="translate(-7,223)" font-family="Noto Sans CJK KR" font-size="11px" fill="#52514e" opacity="1">0</text><text text-anchor="end" transform="translate(-7,179)" font-family="Noto Sans CJK KR" font-size="11px" fill="#52514e" opacity="1">20</text><text text-anchor="end" transform="translate(-7,135)" font-family="Noto Sans CJK KR" font-size="11px" fill="#52514e" opacity="1">40</text><text text-anchor="end" transform="translate(-7,91)" font-family="Noto Sans CJK KR" font-size="11px" fill="#52514e" opacity="1">60</text><text text-anchor="end" transform="translate(-7,46.99999999999999)" font-family="Noto Sans CJK KR" font-size="11px" fill="#52514e" opacity="1">80</text><text text-anchor="end" transform="translate(-7,3)" font-family="Noto Sans CJK KR" font-size="11px" fill="#52514e" opacity="1">100</text></g><g class="mark-rule role-axis-domain" pointer-events="none"><line transform="translate(0,220)" x2="0" y2="-220" stroke="#c3c2b7" stroke-width="1" opacity="1"/></g></g><path class="foreground" aria-hidden="true" d="" pointer-events="none" display="none"/></g></g><g class="mark-group role-scope" role="graphics-object" aria-roledescription="group mark container"><g transform="translate(5.25,206.35999999999999)"><path class="background" aria-hidden="true" d="M4,0L90.5,0C92.707660097976,0,94.5,1.792339902024,94.5,4L94.5,13.640000000000015C94.5,13.640000000000015,94.5,13.640000000000015,94.5,13.640000000000015L0,13.640000000000015C0,13.640000000000015,0,13.640000000000015,0,13.640000000000015L0,4C0,1.792339902024,1.792339902024,0,4,0Z"/><g clip-path="url(#clip1)"><g class="mark-group role-scope" role="graphics-object" aria-roledescription="group mark container"><g transform="translate(0,-206.35999999999999)"><path class="background" aria-hidden="true" d="M0,0h94.5v0h-94.5Z"/><g><g class="mark-rect role-mark layer_0_marks" role="graphics-object" aria-roledescription="rect mark container"><path aria-label="N: 5; recall(%): 6.2" role="graphics-symbol" aria-roledescription="bar" d="M0,206.35999999999999h94.5v13.640000000000015h-94.5Z" fill="#2a78d6"/></g></g><path class="foreground" aria-hidden="true" d="" display="none"/></g></g></g><path class="foreground" aria-hidden="true" d="" display="none"/></g><g transform="translate(110.25,193.6)"><path class="background" aria-hidden="true" d="M4,0L90.5,0C92.707660097976,0,94.5,1.792339902024,94.5,4L94.5,26.400000000000006C94.5,26.400000000000006,94.5,26.400000000000006,94.5,26.400000000000006L0,26.400000000000006C0,26.400000000000006,0,26.400000000000006,0,26.400000000000006L0,4C0,1.792339902024,1.792339902024,0,4,0Z"/><g clip-path="url(#clip2)"><g class="mark-group role-scope" role="graphics-object" aria-roledescription="group mark container"><g transform="translate(0,-193.6)"><path class="background" aria-hidden="true" d="M0,0h94.5v0h-94.5Z"/><g><g class="mark-rect role-mark layer_0_marks" role="graphics-object" aria-roledescription="rect mark container"><path aria-label="N: 10; recall(%): 12" role="graphics-symbol" aria-roledescription="bar" d="M0,193.6h94.5v26.400000000000006h-94.5Z" fill="#2a78d6"/></g></g><path class="foreground" aria-hidden="true" d="" display="none"/></g></g></g><path class="foreground" aria-hidden="true" d="" display="none"/></g><g transform="translate(215.25,163.9)"><path class="background" aria-hidden="true" d="M4,0L90.5,0C92.707660097976,0,94.5,1.792339902024,94.5,4L94.5,56.099999999999994C94.5,56.099999999999994,94.5,56.099999999999994,94.5,56.099999999999994L0,56.099999999999994C0,56.099999999999994,0,56.099999999999994,0,56.099999999999994L0,4C0,1.792339902024,1.792339902024,0,4,0Z"/><g clip-path="url(#clip3)"><g class="mark-group role-scope" role="graphics-object" aria-roledescription="group mark container"><g transform="translate(0,-163.9)"><path class="background" aria-hidden="true" d="M0,0h94.5v0h-94.5Z"/><g><g class="mark-rect role-mark layer_0_marks" role="graphics-object" aria-roledescription="rect mark container"><path aria-label="N: 20; recall(%): 25.5" role="graphics-symbol" aria-roledescription="bar" d="M0,163.9h94.5v56.099999999999994h-94.5Z" fill="#2a78d6"/></g></g><path class="foreground" aria-hidden="true" d="" display="none"/></g></g></g><path class="foreground" aria-hidden="true" d="" display="none"/></g><g transform="translate(320.25,122.76)"><path class="background" aria-hidden="true" d="M4,0L90.5,0C92.707660097976,0,94.5,1.792339902024,94.5,4L94.5,97.24C94.5,97.24,94.5,97.24,94.5,97.24L0,97.24C0,97.24,0,97.24,0,97.24L0,4C0,1.792339902024,1.792339902024,0,4,0Z"/><g clip-path="url(#clip4)"><g class="mark-group role-scope" role="graphics-object" aria-roledescription="group mark container"><g transform="translate(0,-122.76)"><path class="background" aria-hidden="true" d="M0,0h94.5v0h-94.5Z"/><g><g class="mark-rect role-mark layer_0_marks" role="graphics-object" aria-roledescription="rect mark container"><path aria-label="N: 40; recall(%): 44.2" role="graphics-symbol" aria-roledescription="bar" d="M0,122.76h94.5v97.24h-94.5Z" fill="#2a78d6"/></g></g><path class="foreground" aria-hidden="true" d="" display="none"/></g></g></g><path class="foreground" aria-hidden="true" d="" display="none"/></g></g><g class="mark-rule role-mark layer_1_marks" role="graphics-object" aria-roledescription="rule mark container"><line aria-label="top_n: 5; lower_low: 4.3; upper_low: 9.1; high: 9.1; low: 4.3" role="graphics-symbol" aria-roledescription="errorbar" transform="translate(52.5,210.54)" x2="0" y2="-10.559999999999974" stroke="#0b0b0b" stroke-width="2" stroke-dasharray="1,0"/><line aria-label="top_n: 10; lower_low: 9.2; upper_low: 15.6; high: 15.6; low: 9.2" role="graphics-symbol" aria-roledescription="errorbar" transform="translate(157.5,199.76000000000002)" x2="0" y2="-14.080000000000013" stroke="#0b0b0b" stroke-width="2" stroke-dasharray="1,0"/><line aria-label="top_n: 20; lower_low: 21.5; upper_low: 30; high: 30; low: 21.5" role="graphics-symbol" aria-roledescription="errorbar" transform="translate(262.5,172.70000000000002)" x2="0" y2="-18.700000000000017" stroke="#0b0b0b" stroke-width="2" stroke-dasharray="1,0"/><line aria-label="top_n: 40; lower_low: 39.5; upper_low: 49.1; high: 49.1; low: 39.5" role="graphics-symbol" aria-roledescription="errorbar" transform="translate(367.5,133.1)" x2="0" y2="-21.11999999999999" stroke="#0b0b0b" stroke-width="2" stroke-dasharray="1,0"/></g><g class="mark-rule role-mark layer_2_marks" role="graphics-object" aria-roledescription="rule mark container"><line aria-label="y: 90" role="graphics-symbol" aria-roledescription="rule mark" transform="translate(420,21.999999999999996)" x2="-420" y2="0" stroke="#eb6834" stroke-width="2" stroke-dasharray="4,4"/></g><g class="mark-group role-title"><g transform="translate(-37.58837890625,-38)"><path class="background" aria-hidden="true" d="M0,0h0v0h0Z" pointer-events="none"/><g><g class="mark-text role-title-text" role="graphics-symbol" aria-roledescription="title" aria-label="Title text 'RRF 상위 N이 judge가 남긴 항목을 덮는 비율(k=60)'" pointer-events="none"><text text-anchor="start" transform="translate(0,11)" font-family="Noto Sans CJK KR" font-size="14px" font-weight="bold" fill="#0b0b0b" opacity="1">RRF 상위 N이 judge가 남긴 항목을 덮는 비율(k=60)</text></g><g class="mark-text role-title-subtitle" role="graphics-symbol" aria-roledescription="subtitle" aria-label="Subtitle text 'n=400. 기준선은 H1 채택 기준 90%'" pointer-events="none"><text text-anchor="start" transform="translate(0,26)" font-family="Noto Sans CJK KR" font-size="11px" fill="#8a8983" opacity="1">n=400. 기준선은 H1 채택 기준 90%</text></g></g><path class="foreground" aria-hidden="true" d="" pointer-events="none" display="none"/></g></g></g><path class="foreground" aria-hidden="true" d="" display="none"/></g></g></g><defs><clipPath id="clip1"><path d="M4,0L90.5,0C92.707660097976,0,94.5,1.792339902024,94.5,4L94.5,13.640000000000015C94.5,13.640000000000015,94.5,13.640000000000015,94.5,13.640000000000015L0,13.640000000000015C0,13.640000000000015,0,13.640000000000015,0,13.640000000000015L0,4C0,1.792339902024,1.792339902024,0,4,0Z"/></clipPath><clipPath id="clip2"><path d="M4,0L90.5,0C92.707660097976,0,94.5,1.792339902024,94.5,4L94.5,26.400000000000006C94.5,26.400000000000006,94.5,26.400000000000006,94.5,26.400000000000006L0,26.400000000000006C0,26.400000000000006,0,26.400000000000006,0,26.400000000000006L0,4C0,1.792339902024,1.792339902024,0,4,0Z"/></clipPath><clipPath id="clip3"><path d="M4,0L90.5,0C92.707660097976,0,94.5,1.792339902024,94.5,4L94.5,56.099999999999994C94.5,56.099999999999994,94.5,56.099999999999994,94.5,56.099999999999994L0,56.099999999999994C0,56.099999999999994,0,56.099999999999994,0,56.099999999999994L0,4C0,1.792339902024,1.792339902024,0,4,0Z"/></clipPath><clipPath id="clip4"><path d="M4,0L90.5,0C92.707660097976,0,94.5,1.792339902024,94.5,4L94.5,97.24C94.5,97.24,94.5,97.24,94.5,97.24L0,97.24C0,97.24,0,97.24,0,97.24L0,4C0,1.792339902024,1.792339902024,0,4,0Z"/></clipPath></defs></svg>